<?xml version="1.0" encoding="UTF-8" standalone="no"?>
<!DOCTYPE svg PUBLIC "-//W3C//DTD SVG 1.1//EN" "http://www.w3.org/Graphics/SVG/1.1/DTD/svg11.dtd">
<svg width="100%" height="100%" viewBox="0 0 106 99" version="1.1" xmlns="http://www.w3.org/2000/svg" xmlns:xlink="http://www.w3.org/1999/xlink" xml:space="preserve" xmlns:serif="http://www.serif.com/" style="fill-rule:evenodd;clip-rule:evenodd;stroke-linejoin:round;stroke-miterlimit:2;">
    <g>
        <path d="M47.32,97.99L46.05,97.98L47.79,85.11C47.832,84.791 47.63,84.486 47.32,84.4L45.66,83.94C45.604,83.925 45.546,83.917 45.488,83.917C45.189,83.917 44.926,84.121 44.85,84.41L42.12,94.34C42.044,94.626 41.741,94.797 41.45,94.72L41.07,94.62C40.825,94.547 40.681,94.291 40.75,94.05L43.47,84.1C43.47,84.099 43.47,84.099 43.471,84.098C43.572,83.722 43.351,83.33 42.98,83.23L41.66,82.87C41.288,82.769 40.896,82.958 40.75,83.31L34.49,97.97L33.1,97.92L39.45,82.73C39.604,82.353 39.429,81.918 39.06,81.76L37.68,81.15C37.261,80.968 36.766,81.133 36.54,81.53L31.62,90.04C31.438,90.355 31.044,90.485 30.71,90.34L30.44,90.22C30.434,90.217 30.428,90.214 30.422,90.211C30.236,90.117 30.158,89.891 30.249,89.71C30.253,89.703 30.256,89.696 30.26,89.69L35.37,80.85C35.612,80.424 35.509,79.882 35.13,79.58L34.52,79.1C34.519,79.099 34.519,79.099 34.518,79.098C34.086,78.751 33.448,78.817 33.104,79.245C33.103,79.247 33.101,79.248 33.1,79.25L23.24,91.6C23.092,91.783 22.84,91.845 22.63,91.75L22.36,91.63C22.151,91.537 22.015,91.329 22.015,91.1C22.015,90.969 22.059,90.842 22.14,90.74L31.95,78.46C32.239,78.097 32.18,77.562 31.82,77.27L30.81,76.46C30.362,76.107 29.713,76.146 29.31,76.55L22.51,83.35C22.301,83.56 21.964,83.582 21.73,83.4L21.51,83.22C21.503,83.214 21.496,83.208 21.49,83.202C21.286,83.019 21.267,82.703 21.447,82.504C21.454,82.496 21.462,82.488 21.47,82.48L28.55,75.4C28.885,75.058 28.885,74.505 28.55,74.17L27.96,73.58C27.541,73.164 26.877,73.117 26.41,73.47L14.28,82.63C14.032,82.816 13.684,82.804 13.45,82.6L13.19,82.37C13.091,82.269 13.035,82.133 13.035,81.991C13.035,81.822 13.115,81.662 13.25,81.56L26.08,72.28C26.279,72.135 26.398,71.903 26.398,71.657C26.398,71.488 26.342,71.324 26.24,71.19L25.26,69.89C25.066,69.636 24.713,69.563 24.44,69.72L15.38,74.95C15.143,75.087 14.838,75.027 14.67,74.81L14.48,74.55C14.473,74.54 14.465,74.53 14.459,74.52C14.289,74.264 14.357,73.916 14.608,73.749C14.619,73.743 14.629,73.736 14.64,73.73L23.58,68.56C23.871,68.395 24.052,68.085 24.052,67.751C24.052,67.589 24.01,67.43 23.93,67.29L23.39,66.36C23.161,65.959 22.663,65.787 22.23,65.96L7.5,71.88C7.43,71.908 7.355,71.923 7.279,71.923C7.037,71.923 6.819,71.775 6.73,71.55L6.6,71.22C6.518,71.017 6.617,70.783 6.82,70.7L21.76,64.7C22.182,64.535 22.418,64.075 22.31,63.63L22.02,62.45C21.922,62.048 21.559,61.764 21.146,61.764C21.073,61.764 21.001,61.773 20.93,61.79L10.58,64.35C10.551,64.357 10.52,64.361 10.49,64.361C10.282,64.361 10.11,64.189 10.11,63.981C10.11,63.981 10.11,63.66 10.11,63.66C10.111,63.366 10.314,63.109 10.6,63.04L20.51,60.59C20.961,60.478 21.263,60.047 21.21,59.59L21.06,58.26C21.008,57.833 20.617,57.523 20.19,57.57L4.1,59.41C4.096,59.41 4.091,59.411 4.087,59.411C3.781,59.438 3.507,59.213 3.481,58.912C3.481,58.908 3.48,58.904 3.48,58.9L3.48,58.86C3.478,58.532 3.729,58.25 4.06,58.21L19.46,56.27C20.245,56.181 20.844,55.51 20.844,54.72C20.844,53.864 20.14,53.16 19.284,53.16C19.279,53.16 19.275,53.16 19.27,53.16L9.5,53.14C9.093,53.141 8.746,52.825 8.7,52.41L8.7,52.38C8.7,52.375 8.7,52.37 8.7,52.365C8.697,51.965 9.029,51.633 9.435,51.63C9.44,51.63 9.445,51.63 9.45,51.63L20.27,51.86C20.273,51.86 20.277,51.86 20.28,51.86C20.472,51.86 20.63,51.702 20.63,51.51C20.63,51.51 20.63,49.13 20.63,49.13C20.631,49.027 20.557,48.94 20.46,48.93L3.91,46.63C3.652,46.595 3.449,46.383 3.42,46.12L3.38,45.74C3.378,45.72 3.377,45.701 3.377,45.681C3.379,45.429 3.594,45.223 3.852,45.226C3.871,45.226 3.891,45.227 3.91,45.23L20.52,47.53C20.548,47.534 20.576,47.536 20.605,47.536C20.901,47.536 21.153,47.314 21.19,47.02L21.43,45.33C21.471,45.033 21.283,44.746 20.99,44.66L10.87,41.79C10.524,41.696 10.292,41.362 10.32,41L10.32,40.98C10.364,40.693 10.613,40.479 10.903,40.479C10.956,40.479 11.009,40.486 11.06,40.5L21.55,43.37C21.591,43.381 21.634,43.387 21.676,43.387C21.888,43.387 22.075,43.244 22.13,43.04L22.63,41.21C22.699,40.975 22.579,40.721 22.35,40.62L7.08,33.95C6.873,33.855 6.779,33.609 6.87,33.4L7.01,33.06C7.131,32.785 7.459,32.659 7.74,32.78L22.68,39.31C22.681,39.311 22.683,39.311 22.684,39.312C23.126,39.507 23.652,39.3 23.849,38.853C23.849,38.852 23.85,38.851 23.85,38.85L24.33,37.74C24.54,37.266 24.353,36.702 23.9,36.44L14.99,31.29C14.672,31.104 14.56,30.691 14.74,30.37L14.88,30.13C14.881,30.128 14.882,30.127 14.883,30.125C14.98,29.96 15.193,29.901 15.353,29.996C15.356,29.997 15.358,29.999 15.36,30L24.61,35.34C24.755,35.424 24.919,35.468 25.086,35.468C25.426,35.468 25.741,35.285 25.91,34.99L26.34,34.25C26.58,33.835 26.481,33.305 26.11,33.01L13.41,22.86C13.268,22.746 13.186,22.574 13.186,22.392C13.186,22.234 13.249,22.082 13.36,21.97L13.59,21.74C13.778,21.552 14.078,21.535 14.28,21.7L27.18,32.01C27.439,32.218 27.817,32.196 28.05,31.96L29.22,30.8C29.346,30.676 29.417,30.507 29.417,30.33C29.417,30.153 29.346,29.984 29.22,29.86L21.57,22.21C21.305,21.943 21.279,21.517 21.51,21.22L21.7,20.98C21.707,20.972 21.714,20.963 21.721,20.955C21.919,20.735 22.267,20.72 22.491,20.922C22.497,20.928 22.504,20.934 22.51,20.94L30.23,28.66C30.365,28.796 30.549,28.872 30.74,28.872C30.931,28.872 31.115,28.796 31.25,28.66L32.21,27.69C32.466,27.433 32.496,27.025 32.28,26.74L22.44,13.7C22.361,13.598 22.318,13.473 22.318,13.344C22.318,13.162 22.404,12.989 22.55,12.88C22.55,12.88 22.84,12.66 22.84,12.66C23.043,12.509 23.331,12.549 23.478,12.747C23.478,12.748 23.479,12.749 23.48,12.75L33.43,25.93C33.43,25.93 33.43,25.93 33.43,25.93C33.704,26.294 34.231,26.366 34.6,26.09L35.5,25.41C35.863,25.138 35.966,24.633 35.74,24.24L30.58,15.25C30.513,15.137 30.477,15.008 30.477,14.877C30.477,14.613 30.62,14.369 30.85,14.24L30.9,14.21C31.271,14.009 31.741,14.143 31.95,14.51L37.1,23.47C37.101,23.471 37.101,23.473 37.102,23.474C37.355,23.911 37.918,24.065 38.35,23.816C38.354,23.814 38.357,23.812 38.36,23.81L39.13,23.37C39.513,23.148 39.676,22.675 39.51,22.27L33.39,7.02C33.382,7 33.375,6.979 33.37,6.958C33.302,6.692 33.461,6.419 33.721,6.352C33.744,6.347 33.767,6.342 33.79,6.34L34.15,6.3C34.472,6.264 34.781,6.449 34.9,6.75L40.99,21.9C41.129,22.238 41.516,22.404 41.85,22.27L43.19,21.73C43.528,21.592 43.716,21.224 43.63,20.87L41.04,10.39C41.04,10.388 41.039,10.386 41.039,10.384C40.954,10.032 41.17,9.674 41.517,9.591C41.518,9.591 41.519,9.59 41.52,9.59L41.77,9.52C42.088,9.445 42.412,9.643 42.49,9.96L45.06,20.37C45.06,20.371 45.061,20.373 45.061,20.374C45.176,20.832 45.643,21.115 46.095,21.001C46.097,21.001 46.098,21 46.1,21L46.99,20.78C47.407,20.678 47.687,20.277 47.64,19.85L45.82,3.69C45.779,3.354 45.996,3.038 46.32,2.96L46.67,2.88C46.684,2.876 46.699,2.873 46.713,2.87C47.01,2.816 47.3,3.021 47.355,3.323C47.357,3.335 47.359,3.348 47.36,3.36L49.2,19.65C49.2,19.653 49.201,19.656 49.201,19.658C49.246,20.084 49.638,20.396 50.069,20.35C50.07,20.35 50.98,20.25 50.98,20.25C51.472,20.194 51.848,19.775 51.85,19.28L51.85,9C51.85,8.556 52.216,8.19 52.66,8.19L52.94,8.19C53.247,8.19 53.5,8.443 53.5,8.75L53.5,19.61C53.5,19.939 53.771,20.21 54.1,20.21L55.55,20.21C55.836,20.209 56.08,19.999 56.12,19.72L58.38,3.43C58.428,3.086 58.726,2.827 59.073,2.827C59.119,2.827 59.165,2.831 59.21,2.84L59.5,2.9C59.76,2.95 59.937,3.198 59.9,3.46L57.61,19.97C57.606,19.995 57.605,20.019 57.605,20.044C57.605,20.305 57.801,20.528 58.06,20.56L59.68,20.78C59.986,20.826 60.283,20.632 60.37,20.33L63.14,10.23C63.237,9.876 63.544,9.616 63.91,9.58L64.19,9.54C64.218,9.537 64.246,9.537 64.274,9.54C64.531,9.561 64.726,9.785 64.705,10.036C64.703,10.065 64.698,10.093 64.69,10.12L61.84,20.49C61.819,20.569 61.808,20.65 61.808,20.731C61.808,21.146 62.089,21.513 62.49,21.62L63.03,21.77C63.588,21.924 64.179,21.646 64.41,21.12L70.72,6.69C70.849,6.383 71.171,6.201 71.5,6.25L71.81,6.3C71.836,6.304 71.862,6.309 71.887,6.316C72.183,6.4 72.358,6.708 72.276,6.998C72.269,7.022 72.26,7.047 72.25,7.07L65.68,22.11C65.646,22.189 65.628,22.275 65.628,22.361C65.628,22.612 65.779,22.841 66.01,22.94L67.48,23.59C67.759,23.712 68.09,23.604 68.25,23.34L73.67,14.16C73.805,13.932 74.051,13.792 74.316,13.792C74.459,13.792 74.599,13.833 74.72,13.91L74.76,13.93C74.764,13.932 74.767,13.934 74.771,13.936C75.099,14.126 75.21,14.556 75.017,14.888C75.015,14.892 75.012,14.896 75.01,14.9L69.57,23.92C69.57,23.92 69.57,23.92 69.57,23.921C69.343,24.309 69.472,24.813 69.855,25.037C69.857,25.038 69.858,25.039 69.86,25.04L70.82,25.59C71.181,25.801 71.645,25.715 71.9,25.39L82.07,12.67C82.212,12.488 82.469,12.437 82.67,12.55L82.92,12.7C82.935,12.709 82.95,12.718 82.965,12.728C83.259,12.929 83.334,13.34 83.13,13.639C83.12,13.653 83.11,13.667 83.1,13.68L73.2,26.07C72.905,26.439 72.935,26.977 73.27,27.31L74.22,28.26C74.555,28.595 75.108,28.595 75.45,28.26L82.86,20.84C83.013,20.686 83.261,20.669 83.44,20.8L83.68,20.99C83.692,20.999 83.703,21.008 83.714,21.017C83.967,21.235 83.991,21.63 83.765,21.892C83.757,21.902 83.749,21.911 83.74,21.92L76.12,29.54C76.039,29.619 75.994,29.727 75.994,29.84C75.994,29.953 76.039,30.061 76.12,30.14L77.27,31.29C77.529,31.547 77.942,31.572 78.23,31.35L90.96,21.74C91.059,21.664 91.181,21.623 91.305,21.623C91.509,21.623 91.699,21.733 91.8,21.91L91.95,22.17C92.07,22.372 92.013,22.638 91.82,22.78L79.33,32.21C79.33,32.21 79.33,32.21 79.33,32.21C78.878,32.549 78.788,33.204 79.13,33.66L79.82,34.57C80.12,34.969 80.678,35.082 81.11,34.83L89.86,29.78C90.063,29.667 90.323,29.739 90.44,29.94L90.59,30.21C90.643,30.301 90.67,30.405 90.67,30.51C90.67,30.724 90.556,30.923 90.37,31.03L81.77,36C81.289,36.281 81.122,36.907 81.4,37.39L81.76,38.03C82.058,38.54 82.691,38.759 83.24,38.54L97.41,32.85C97.592,32.775 97.806,32.847 97.91,33.02L98.08,33.31C98.119,33.377 98.139,33.453 98.139,33.53C98.139,33.711 98.028,33.874 97.86,33.94L84.04,39.49C83.414,39.746 83.003,40.359 83.003,41.036C83.003,41.952 83.756,42.706 84.673,42.706C84.803,42.706 84.933,42.69 85.06,42.66L94.13,40.43C94.167,40.421 94.205,40.416 94.243,40.416C94.48,40.416 94.682,40.595 94.71,40.83L94.75,41.14C94.773,41.385 94.615,41.612 94.38,41.67L84.62,44.08C84.395,44.133 84.235,44.335 84.235,44.567C84.235,44.608 84.24,44.65 84.25,44.69L84.73,46.61C84.793,46.878 85.052,47.058 85.33,47.03L101,45.27C101.02,45.268 101.04,45.266 101.06,45.266C101.334,45.266 101.56,45.492 101.56,45.766C101.56,45.768 101.56,45.769 101.56,45.77L101.56,46.16C101.561,46.397 101.375,46.6 101.13,46.63L85.51,48.39C85.509,48.39 85.507,48.39 85.506,48.39C85.189,48.423 84.956,48.715 84.99,49.037C84.99,49.038 84.99,49.039 84.99,49.04L85.21,50.93C85.251,51.316 85.577,51.612 85.96,51.61L95.97,51.61C96.19,51.609 96.38,51.777 96.41,52L96.44,52.31C96.442,52.323 96.443,52.336 96.444,52.35C96.465,52.717 96.177,53.037 95.804,53.059C95.79,53.06 95.775,53.06 95.76,53.06L85.76,53.06C85.403,53.06 85.11,53.358 85.11,53.72L85.11,55.05C85.11,55.511 85.454,55.906 85.91,55.97L101.04,58.07C101.252,58.1 101.411,58.281 101.41,58.49L101.41,58.86C101.41,58.862 101.41,58.863 101.41,58.865C101.41,59.134 101.189,59.355 100.92,59.355C100.897,59.355 100.873,59.353 100.85,59.35L85.54,57.22C85.127,57.167 84.742,57.458 84.68,57.87L84.45,59.55C84.397,59.913 84.626,60.263 84.98,60.36L94.11,62.86C94.507,62.966 94.765,63.358 94.71,63.77L94.66,64.09C94.645,64.215 94.538,64.311 94.412,64.311C94.387,64.311 94.363,64.307 94.34,64.3L84.61,61.64C84.61,61.64 84.609,61.64 84.609,61.64C84.249,61.539 83.872,61.747 83.773,62.101C83.772,62.104 83.771,62.107 83.77,62.11L83.38,63.55C83.264,63.96 83.47,64.398 83.86,64.57L97.7,70.61C97.934,70.711 98.086,70.943 98.086,71.198C98.086,71.288 98.067,71.377 98.03,71.46L97.88,71.8C97.834,71.912 97.724,71.986 97.602,71.986C97.56,71.986 97.519,71.977 97.48,71.96L83.43,65.82C83.019,65.639 82.531,65.829 82.35,66.24L81.71,67.7C81.541,68.092 81.692,68.554 82.06,68.77L90.25,73.49C90.41,73.583 90.509,73.755 90.509,73.939C90.509,74.06 90.467,74.177 90.39,74.27L90.21,74.5C90.087,74.651 89.875,74.693 89.71,74.6L81.47,69.83C80.988,69.555 80.363,69.726 80.08,70.21L79.67,70.93C79.38,71.427 79.505,72.068 79.96,72.42L91.65,81.54C91.655,81.544 91.66,81.548 91.665,81.552C91.89,81.744 91.921,82.084 91.733,82.306C91.728,82.311 91.724,82.315 91.72,82.32L91.71,82.34C91.509,82.58 91.149,82.62 90.9,82.43L78.89,73.24C78.539,72.975 78.037,73.038 77.77,73.38L76.94,74.41C76.652,74.773 76.682,75.299 77.01,75.62L83.73,82.35C83.732,82.352 83.734,82.353 83.735,82.355C83.9,82.517 83.899,82.788 83.734,82.956C83.732,82.958 83.731,82.959 83.73,82.96L83.53,83.16C83.274,83.414 82.856,83.414 82.6,83.16L75.98,76.54C75.661,76.219 75.145,76.185 74.78,76.46L73.83,77.18C73.435,77.476 73.354,78.045 73.65,78.44L82.92,90.72C82.92,90.721 82.921,90.721 82.921,90.722C83.071,90.918 83.037,91.2 82.845,91.346C82.843,91.348 82.842,91.349 82.84,91.35L82.57,91.55C82.345,91.721 82.018,91.676 81.84,91.45L72.6,79.21C72.271,78.771 71.639,78.681 71.2,79.01L70.28,79.7C69.905,79.985 69.801,80.51 70.04,80.91L74.84,89.23C74.907,89.345 74.942,89.476 74.942,89.61C74.942,89.898 74.778,90.162 74.52,90.29L74.24,90.43C74.033,90.531 73.781,90.456 73.67,90.26L68.68,81.63C68.679,81.628 68.677,81.625 68.676,81.623C68.425,81.186 67.854,81.035 67.411,81.289C67.411,81.289 67.41,81.29 67.41,81.29L66.67,81.71C66.225,81.974 66.037,82.526 66.23,83L71.61,96.4C71.632,96.454 71.644,96.513 71.644,96.572C71.644,96.756 71.531,96.922 71.36,96.99L71.07,97.1C71.067,97.101 71.064,97.102 71.061,97.104C70.767,97.223 70.424,97.075 70.302,96.775C70.301,96.773 70.301,96.772 70.3,96.77L64.9,83.33C64.762,82.992 64.394,82.804 64.04,82.89L62.65,83.24C62.309,83.321 62.066,83.629 62.066,83.979C62.066,84.044 62.074,84.108 62.09,84.17L64.47,93.76C64.471,93.764 64.472,93.768 64.473,93.772C64.563,94.14 64.33,94.518 63.956,94.608C63.954,94.609 63.952,94.609 63.95,94.61L63.88,94.63C63.478,94.706 63.083,94.453 62.99,94.06L60.67,84.7C60.581,84.32 60.217,84.064 59.83,84.11L58.57,84.25C58.568,84.25 58.567,84.25 58.565,84.251C58.157,84.3 57.861,84.672 57.909,85.075C57.91,85.077 57.91,85.078 57.91,85.08L59.13,95.93C59.132,95.945 59.132,95.96 59.132,95.975C59.132,96.2 58.947,96.385 58.722,96.385C58.702,96.385 58.681,96.383 58.66,96.38L58.34,96.34C57.96,96.288 57.662,95.981 57.62,95.6L56.47,85.36C56.432,85.006 56.13,84.735 55.774,84.735C55.746,84.735 55.718,84.737 55.69,84.74L54.22,84.9C53.779,84.95 53.442,85.326 53.44,85.77L53.44,95.45C53.44,95.686 53.246,95.88 53.01,95.88L52.71,95.88C52.353,95.88 52.06,95.591 52.06,95.24L52.07,85.83C52.061,85.057 51.423,84.427 50.65,84.427C49.96,84.427 49.365,84.93 49.25,85.61L47.32,97.99ZM83.28,52.58C83.28,35.914 69.566,22.2 52.9,22.2C36.234,22.2 22.52,35.914 22.52,52.58C22.52,69.246 36.234,82.96 52.9,82.96C69.566,82.96 83.28,69.246 83.28,52.58Z" style="fill:white;fill-rule:nonzero;"/>
        <path d="M38.05,38.3C37.981,38.483 37.805,38.605 37.61,38.605C37.352,38.605 37.14,38.393 37.14,38.135C37.14,38.133 37.14,38.132 37.14,38.13C37.207,36.823 37.583,35.543 38.27,34.29C39.67,31.73 41.797,30.72 44.65,31.26C45.044,31.337 45.395,31.554 45.64,31.87L46.43,32.92C46.483,32.992 46.517,33.076 46.532,33.165C46.58,33.468 46.375,33.757 46.077,33.805C45.988,33.819 45.896,33.81 45.81,33.78C41.997,32.487 39.41,33.993 38.05,38.3Z" style="fill:white;fill-rule:nonzero;"/>
        <path d="M62.3,34.41C62.288,34.411 62.276,34.411 62.264,34.411C61.99,34.411 61.764,34.186 61.764,33.911C61.764,33.747 61.845,33.593 61.98,33.5C66.41,30.41 69.76,33.95 69.94,38.18C69.94,38.183 69.94,38.186 69.94,38.188C69.94,38.364 69.796,38.508 69.62,38.508C69.528,38.508 69.441,38.469 69.38,38.4L66.95,35.54C66.857,35.434 66.749,35.343 66.63,35.27C65.423,34.583 63.98,34.297 62.3,34.41Z" style="fill:white;fill-rule:nonzero;"/>
        <path d="M48.46,47.39C48.572,47.477 48.637,47.611 48.637,47.753C48.637,47.986 48.461,48.183 48.23,48.21C43.283,48.803 38.52,49.973 33.94,51.72C33.886,51.74 33.828,51.75 33.77,51.75C33.501,51.75 33.28,51.529 33.28,51.26C33.28,51.26 33.28,51.26 33.28,51.26C33.28,49.633 34.163,48.75 35.93,48.61C36.523,48.561 36.986,48.059 36.986,47.464C36.986,47.344 36.967,47.224 36.93,47.11C36.297,45.157 36.267,44.16 36.84,44.12C36.922,44.114 37.003,44.091 37.077,44.052C37.344,43.912 37.461,43.6 37.336,43.362C37.302,43.297 37.252,43.242 37.19,43.2C36.617,42.813 36.313,42.553 36.28,42.42C36.272,42.377 36.267,42.332 36.268,42.288C36.271,41.932 36.562,41.641 36.914,41.644C36.959,41.644 37.005,41.65 37.05,41.66C37.99,41.873 38.76,41.603 39.36,40.85C41.34,38.33 43.91,37.52 46.79,39.44C46.939,39.533 47.03,39.697 47.03,39.872C47.03,40.152 46.799,40.382 46.52,40.382C46.469,40.382 46.418,40.375 46.37,40.36C41.35,39.02 40.1,43.66 41.13,47.37C41.184,47.57 41.367,47.709 41.574,47.709C41.712,47.709 41.843,47.647 41.93,47.54L42.21,47.19C42.274,47.108 42.299,47.005 42.28,46.91C40.97,39.98 49.88,41.04 47.94,46.33C47.834,46.629 47.926,46.963 48.17,47.16L48.46,47.39ZM46.61,44.74C46.61,44.219 46.181,43.79 45.66,43.79C45.139,43.79 44.71,44.219 44.71,44.74C44.71,45.261 45.139,45.69 45.66,45.69C46.181,45.69 46.61,45.261 46.61,44.74Z" style="fill:white;fill-rule:nonzero;"/>
        <path d="M69.23,45.37C69.303,45.417 69.34,45.5 69.34,45.62C69.347,45.793 69.347,45.887 69.34,45.9C69.08,46.493 68.883,47.1 68.75,47.72C68.679,48.049 68.852,48.385 69.16,48.52L72.01,49.77C72.726,50.086 73.191,50.794 73.19,51.57L73.19,51.88C73.19,51.931 73.184,51.981 73.172,52.031C73.087,52.405 72.714,52.644 72.344,52.56C72.295,52.549 72.246,52.532 72.2,52.51C68,50.483 63.457,49.09 58.57,48.33C58.33,48.29 58.152,48.08 58.152,47.837C58.152,47.73 58.187,47.626 58.25,47.54C58.377,47.373 58.517,47.26 58.67,47.2C59.088,47.033 59.355,46.621 59.33,46.18C59.257,44.88 59.86,43.887 61.14,43.2C63.54,41.91 64.74,43.45 65.57,45.67C65.605,45.77 65.7,45.837 65.806,45.837C65.923,45.837 66.025,45.754 66.05,45.64C66.89,42.35 64.36,38.61 60.96,41.22C60.527,41.56 60.18,41.777 59.92,41.87C59.88,41.885 59.837,41.891 59.795,41.886C59.648,41.868 59.542,41.728 59.56,41.576C59.565,41.535 59.579,41.495 59.6,41.46C61.52,38.48 65.03,37.44 67.25,40.57C68.057,41.697 68.55,42.283 68.73,42.33C68.925,42.379 69.063,42.556 69.063,42.757C69.063,42.86 69.027,42.961 68.96,43.04C68.84,43.193 68.79,43.753 68.81,44.72C68.816,44.974 68.976,45.22 69.23,45.37ZM63.35,45.64C63.35,45.24 63.02,44.91 62.62,44.91C62.22,44.91 61.89,45.24 61.89,45.64C61.89,46.04 62.22,46.37 62.62,46.37C63.02,46.37 63.35,46.04 63.35,45.64Z" style="fill:white;fill-rule:nonzero;"/>
        <path d="M58.27,50.55C58.308,50.615 58.328,50.69 58.328,50.765C58.328,51.001 58.134,51.195 57.898,51.195C57.817,51.195 57.738,51.173 57.67,51.13C54.63,49.223 52.107,49.607 50.1,52.28C50,52.418 49.84,52.5 49.67,52.5C49.379,52.5 49.14,52.261 49.14,51.97C49.14,51.967 49.14,51.963 49.14,51.96C49.147,50.073 49.893,48.623 51.38,47.61C51.719,47.382 52.116,47.26 52.52,47.26C55.047,47.28 56.963,48.377 58.27,50.55Z" style="fill:white;fill-rule:nonzero;"/>
        <path d="M65.18,54.84L63.07,54.55C62.794,54.512 62.587,54.274 62.587,53.995C62.587,53.847 62.645,53.705 62.75,53.6L63.49,52.86C63.999,52.357 64.744,52.175 65.42,52.39C67.893,53.19 69.643,54.95 70.67,57.67C70.687,57.713 70.695,57.758 70.695,57.804C70.695,58.007 70.528,58.174 70.325,58.174C70.239,58.174 70.156,58.145 70.09,58.09L67.63,56.13C67.374,55.927 67.004,55.949 66.78,56.18L62.69,60.27C62.26,60.693 61.967,61.237 61.85,61.83C60.46,68.73 52.41,75.73 46.24,68.57C45.42,67.617 44.533,65.643 43.58,62.65C43.462,62.256 43.245,61.898 42.95,61.61L38.62,57.28C38.564,57.222 38.486,57.189 38.405,57.189C38.286,57.189 38.177,57.261 38.13,57.37L37.41,59.03C37.367,59.132 37.297,59.219 37.206,59.281C36.944,59.461 36.578,59.39 36.394,59.123C36.332,59.033 36.296,58.928 36.29,58.82C36.07,54.86 38.33,51.52 42.67,52.99C43.019,53.108 43.255,53.437 43.255,53.805C43.255,54.199 42.983,54.546 42.6,54.64L40.43,55.18C40.142,55.248 39.938,55.507 39.938,55.803C39.938,55.97 40.003,56.13 40.12,56.25C48.2,64.58 57.67,63.04 65.41,55.55C65.445,55.518 65.473,55.48 65.495,55.439C65.597,55.239 65.513,54.987 65.308,54.882C65.268,54.861 65.225,54.847 65.18,54.84Z" style="fill:white;fill-rule:nonzero;"/>
        <path d="M59.46,72.33C57.99,76.61 52.2,79.32 48.66,75.08C48.57,74.972 48.521,74.836 48.521,74.696C48.521,74.367 48.792,74.096 49.121,74.096C49.207,74.096 49.292,74.114 49.37,74.15C52.383,75.49 55.54,74.747 58.84,71.92C58.891,71.877 58.953,71.848 59.019,71.834C59.229,71.793 59.435,71.927 59.475,72.132C59.488,72.198 59.483,72.266 59.46,72.33Z" style="fill:white;fill-rule:nonzero;"/>
    </g>
</svg>
